<svg width="28" height="28" viewBox="0 0 28 28" fill="none" xmlns="http://www.w3.org/2000/svg">
<path d="M20.2864 6.09087C20.2864 6.10211 20.2864 6.10211 20.2864 6.11334C20.0056 6.10211 19.7247 6.09087 19.4214 6.09087H10.7708L11.9729 4.90001C13.0738 3.78779 14.2872 2.76544 15.6915 2.76544C17.107 2.76544 18.3204 3.78779 19.4214 4.90001L20.0505 5.52915C20.2078 5.67519 20.2864 5.87742 20.2864 6.09087Z" fill="#260B64"/>
<path d="M24.3871 15.3144C24.8252 15.3144 25.1735 14.9549 25.1735 14.5056V13.5169C25.1735 9.10173 23.8253 7.76482 19.4214 7.76482H12.3436H9.49001C5.08606 7.76482 3.73792 9.11296 3.73792 13.5169V14C3.73792 14.4494 4.08619 14.7977 4.52433 14.7977C5.46804 14.7977 6.22075 15.5616 6.22075 16.4941C6.22075 17.4265 5.46804 18.2017 4.52433 18.2017C4.08619 18.2017 3.73792 18.55 3.73792 18.9994V19.4825C3.73792 23.8977 5.08606 25.2346 9.49001 25.2346H12.3324H19.4101C23.8141 25.2346 25.1622 23.8864 25.1622 19.4825C25.1622 19.0443 24.814 18.6848 24.3758 18.6848C23.4321 18.6848 22.6794 17.9321 22.6794 16.9996C22.6906 16.0672 23.4433 15.3144 24.3871 15.3144ZM13.13 21.7069C13.13 22.1451 12.7705 22.5046 12.3324 22.5046C11.8942 22.5046 11.5347 22.1451 11.5347 21.7069V18.6961C11.5347 18.2579 11.8942 17.8984 12.3324 17.8984C12.7705 17.8984 13.13 18.2579 13.13 18.6961V21.7069ZM13.13 14.3033C13.13 14.7415 12.7705 15.101 12.3324 15.101C11.8942 15.101 11.5347 14.7415 11.5347 14.3033V11.2925C11.5347 10.8543 11.8942 10.4948 12.3324 10.4948C12.7705 10.4948 13.13 10.8543 13.13 11.2925V14.3033Z" fill="#260B64"/>
</svg>
