<svg width="55" height="56" viewBox="0 0 55 56" fill="none" xmlns="http://www.w3.org/2000/svg">
<rect y="0.931641" width="54.1368" height="54.1368" rx="27.0684" fill="#F4F4F5"/>
<path d="M27.0684 28.5404L30.9816 32.4536L29.6772 33.758L27.9908 32.0723V37.2237H26.146V32.0705L24.4596 33.758L23.1551 32.4536L27.0684 28.5404ZM27.0684 18.7764C30.3828 18.7764 33.114 21.2738 33.4827 24.4895C35.6333 25.0776 37.2145 27.0459 37.2145 29.3836C37.2145 32.0297 35.1886 34.2026 32.6032 34.436L32.6034 32.579C34.1675 32.3549 35.3697 31.0096 35.3697 29.3836C35.3697 27.6007 33.9244 26.1553 32.1414 26.1553C31.9488 26.1553 31.7602 26.1722 31.5776 26.2051C31.6448 25.8917 31.6803 25.5665 31.6803 25.2329C31.6803 22.6859 29.6154 20.6211 27.0684 20.6211C24.5214 20.6211 22.4566 22.6859 22.4566 25.2329C22.4566 25.5665 22.492 25.8917 22.5599 26.2045C22.3766 26.1722 22.188 26.1553 21.9954 26.1553C20.2125 26.1553 18.7671 27.6007 18.7671 29.3836C18.7671 30.9519 19.8854 32.259 21.368 32.551L21.5342 32.5792L21.5346 34.436C18.9488 34.2032 16.9224 32.0301 16.9224 29.3836C16.9224 27.0459 18.5035 25.0776 20.6547 24.4896C21.0229 21.2738 23.754 18.7764 27.0684 18.7764Z" fill="#242565"/>
</svg>
